<?xml version="1.0" standalone="no"?>
<!DOCTYPE svg PUBLIC "-//W3C//DTD SVG 20010904//EN"
 "http://www.w3.org/TR/2001/REC-SVG-20010904/DTD/svg10.dtd">
<svg version="1.0" xmlns="http://www.w3.org/2000/svg"
 width="460.000000pt" height="460.000000pt" viewBox="0 0 460.000000 460.000000"
 preserveAspectRatio="xMidYMid meet">
<metadata>
Created by potrace 1.11, written by Peter Selinger 2001-2013
</metadata>
<g transform="translate(0.000000,460.000000) scale(0.100000,-0.100000)"
fill="#000000" stroke="none">
<path d="M404 4134 c3 -8 1 -14 -5 -14 -6 0 -7 -5 -3 -11 8 -14 11 -120 3
-125 -4 -2 -3 -22 1 -44 4 -22 4 -40 -1 -40 -5 0 -6 -6 -3 -14 8 -21 10 -146
2 -146 -3 0 -3 -12 1 -27 4 -16 4 -44 1 -65 -4 -20 -4 -42 0 -49 4 -6 4 -24 0
-40 -5 -15 -6 -30 -3 -32 7 -7 10 -107 3 -107 -4 0 -5 -15 -3 -32 2 -18 4 -39
3 -45 -1 -31 0 -41 2 -96 2 -33 0 -60 -3 -62 -3 -2 -4 -19 -2 -37 2 -18 4 -39
4 -45 0 -7 0 -28 -1 -45 0 -18 1 -52 2 -76 2 -23 0 -42 -4 -42 -4 0 -5 -6 -2
-14 8 -22 10 -146 2 -146 -4 0 -5 -7 -2 -15 8 -19 10 -145 3 -145 -3 0 -4 -15
-2 -32 2 -18 4 -39 3 -45 -1 -31 0 -41 2 -96 2 -33 0 -61 -5 -64 -4 -2 -4 -9
-1 -15 9 -14 11 -68 3 -68 -3 0 -4 -15 -2 -32 2 -18 4 -39 3 -45 -1 -31 0 -41
2 -96 2 -33 0 -61 -3 -63 -4 -2 -3 -22 1 -44 4 -22 4 -40 -1 -40 -5 0 -6 -6
-3 -14 8 -21 10 -146 2 -146 -3 0 -3 -12 1 -27 4 -16 4 -44 1 -65 -4 -20 -4
-42 0 -49 4 -6 4 -24 0 -40 -5 -15 -6 -30 -3 -32 7 -7 10 -107 3 -107 -4 0 -5
-15 -3 -32 2 -18 4 -39 3 -45 -1 -31 0 -41 2 -96 2 -33 0 -60 -3 -62 -3 -2 -4
-19 -2 -37 2 -18 4 -39 4 -45 0 -7 0 -28 -1 -45 0 -18 1 -52 2 -76 2 -23 0
-42 -4 -42 -4 0 -5 -6 -2 -14 8 -22 10 -146 2 -146 -4 0 -5 -7 -2 -15 8 -19
10 -145 3 -145 -3 0 -4 -15 -2 -32 2 -18 4 -39 3 -45 -1 -31 0 -41 2 -96 2
-33 0 -61 -5 -64 -4 -2 -4 -9 -1 -15 9 -14 11 -68 3 -68 -3 0 -4 -15 -2 -32 2
-18 4 -40 4 -48 -1 -8 -1 -27 -2 -42 -1 -48 -12 -47 236 -33 132 7 291 13 520
20 165 5 350 12 505 20 138 7 364 16 515 20 185 5 390 13 515 20 116 6 299 13
525 20 201 6 454 16 740 31 66 3 139 6 163 6 23 -1 42 3 43 6 3 20 4 3619 2
3628 -2 6 -49 12 -121 14 -64 1 -160 4 -212 5 -86 3 -314 11 -510 20 -41 2
-167 6 -280 9 -203 6 -326 11 -530 22 -170 8 -292 13 -515 19 -207 6 -250 7
-515 20 -212 11 -292 14 -490 19 -162 5 -289 10 -528 21 -51 2 -62 0 -58 -11z"/>
</g>
</svg>
